<?xml version="1.0" encoding="UTF-8"?>
<svg width="518px" height="149px" viewBox="0 0 518 149" version="1.1" xmlns="http://www.w3.org/2000/svg" xmlns:xlink="http://www.w3.org/1999/xlink">
    <title>British Council logo</title>
    <desc>British Council logo.</desc>
    <g id="Page-1" stroke="none" stroke-width="1" fill="none" fill-rule="evenodd">
        <g id="bc-logo" fill="#FFFFFF" fill-rule="nonzero">
            <g id="Group" transform="translate(171.000000, 5.000000)">
                <g>
                    <path d="M5.868,63.33 L5.868,0.727 L28.853,0.727 C33.795,0.727 37.019,1.486 39.686,2.721 C46.047,5.763 48.903,11.556 48.903,16.874 C48.903,22.865 46.424,26.941 41.392,29.99 L41.392,30.178 C48.61,31.785 52.983,36.818 52.983,44.425 C52.983,52.878 47.857,59.339 39.116,62.004 C35.977,62.951 32.561,63.332 27.143,63.332 L5.868,63.332 M33.994,11.456 C32.561,10.796 30.851,10.415 28.099,10.415 L16.607,10.415 L16.607,26.756 L27.434,26.756 C30.851,26.756 32.943,26.184 34.46,25.324 C36.934,23.91 38.168,21.528 38.168,18.49 C38.168,15.353 36.741,12.794 33.994,11.456 L33.994,11.456 Z M37.311,37.391 C35.793,36.732 33.895,36.352 30.186,36.352 L16.607,36.352 L16.607,53.638 L29.428,53.638 C33.32,53.638 35.605,53.162 37.41,52.314 C40.454,50.799 41.971,48.126 41.971,44.525 C41.971,41.288 40.256,38.724 37.311,37.391 Z" id="Shape"></path>
                    <rect id="Rectangle" x="115.626" y="0.727" width="10.734" height="62.604"></rect>
                    <rect id="Rectangle" x="193.562" y="0.727" width="10.725" height="62.604"></rect>
                    <path d="M238.958,0.16 C245.706,0.16 252.547,1.778 256.335,3.675 L256.156,13.933 C250.738,11.275 245.225,9.558 238.675,9.558 C232.794,9.558 227.752,11.372 227.752,16.311 C227.752,29.134 259.963,24.005 259.963,45.183 C259.963,56.871 250.077,64.268 235.724,64.268 C225.952,64.268 219.204,61.514 214.549,58.68 L219.007,49.937 C222.814,52.313 228.902,54.877 236.111,54.877 C242.576,54.877 248.561,52.398 248.561,46.71 C248.561,33.302 216.642,39.198 216.642,17.828 C216.642,6.423 225.754,0.16 238.958,0.16 Z" id="Path"></path>
                    <polygon id="Path" points="310.777 63.33 310.777 36.352 280.375 36.352 280.375 63.33 269.642 63.33 269.642 0.727 280.375 0.727 280.375 26.378 310.777 26.378 310.777 0.727 321.51 0.727 321.51 63.33"></polygon>
                    <path d="M29.57,74.326 C36.407,74.326 41.627,75.664 46.957,78.03 L43.72,87.152 C40.68,85.734 36.685,84.024 30.715,84.024 C18.836,84.024 11.433,94.088 11.433,106.34 C11.433,118.699 18.359,128.759 30.715,128.759 C36.685,128.759 40.68,127.058 43.72,125.621 L46.957,134.753 C41.627,137.118 36.407,138.447 29.57,138.447 C10.849,138.447 0.125,125.343 0.125,106.533 C0.125,88.961 10.849,74.326 29.57,74.326 Z" id="Path"></path>
                    <path d="M264.439,74.326 C271.281,74.326 276.502,75.664 281.816,78.03 L278.593,87.152 C275.549,85.734 271.554,84.024 265.569,84.024 C253.694,84.024 246.287,94.088 246.287,106.34 C246.287,118.699 253.224,128.759 265.569,128.759 C271.554,128.759 275.549,127.058 278.593,125.621 L281.816,134.753 C276.502,137.118 271.28,138.447 264.439,138.447 C245.714,138.447 234.98,125.343 234.98,106.533 C234.98,88.961 245.714,74.326 264.439,74.326 Z" id="Path"></path>
                    <path d="M108.313,106.141 C108.313,124.961 96.336,138.446 78.672,138.446 C60.819,138.446 49.039,125.432 49.039,106.631 C49.039,87.821 61.003,74.326 78.672,74.326 C96.543,74.326 108.313,87.35 108.313,106.141 L108.313,106.141 Z M97.004,106.339 C97.004,92.665 89.223,83.924 78.672,83.924 C68.132,83.924 60.339,92.665 60.339,106.433 C60.339,120.126 68.132,128.853 78.672,128.853 C89.223,128.853 97.004,120.125 97.004,106.339 Z" id="Shape"></path>
                    <path d="M115.57,113.934 L115.57,74.9 L126.304,74.9 L126.304,114.32 C126.304,124.762 131.911,128.663 140.835,128.663 C149.958,128.663 155.377,124.762 155.377,114.32 L155.377,74.9 L166.111,74.9 L166.111,113.934 C166.111,130.945 156.414,138.446 140.657,138.446 C125.164,138.446 115.57,130.945 115.57,113.934 Z" id="Path"></path>
                    <path d="M186.287,91.911 L186.099,91.911 C186.287,93.994 186.381,97.32 186.381,100.27 L186.381,137.495 L175.647,137.495 L175.647,74.905 L187.239,74.905 L216.293,117.553 L216.491,117.553 C216.293,115.461 216.209,112.135 216.209,109.185 L216.209,74.905 L226.933,74.905 L226.933,137.494 L217.443,137.494 L186.287,91.911 Z" id="Path"></path>
                    <rect id="Rectangle" x="290.252" y="74.9" width="10.715" height="62.604"></rect>
                    <polygon id="Path" points="310.777 137.503 310.777 74.9 321.51 74.9 321.51 127.807 346.013 127.807 346.013 137.503"></polygon>
                </g>
                <polygon id="Path" points="185.354 0.741 134.541 0.741 134.541 10.523 154.575 10.523 154.575 63.33 165.31 63.33 165.31 10.523 185.354 10.523"></polygon>
                <path d="M96.308,63.33 C87.197,44.435 84.818,39.11 81.019,39.11 L71.049,39.11 L71.049,63.33 L60.32,63.33 L60.32,0.741 L81.496,0.741 C97.636,0.741 103.818,9.289 103.818,18.783 C103.818,27.144 98.975,32.75 92.227,34.827 L92.227,34.929 C95.072,36.547 98.107,42.437 108.559,63.33 L96.308,63.33 Z M82.164,10.424 L71.049,10.424 L71.049,29.427 L81.684,29.427 C89.384,29.427 92.99,25.437 92.99,19.735 C92.99,14.604 89.666,10.424 82.164,10.424 Z" id="Shape"></path>
            </g>
            <path d="M71.603,35.804 C71.603,55.575 55.574,71.608 35.802,71.608 C16.03,71.607 0,55.575 0,35.804 C0,16.029 16.03,0 35.801,0 C55.573,0 71.603,16.029 71.603,35.804 Z" id="Path"></path>
            <path d="M148.219,35.804 C148.219,55.575 132.19,71.608 112.418,71.608 C92.647,71.608 76.617,55.575 76.617,35.804 C76.617,16.029 92.647,0 112.418,0 C132.19,0 148.219,16.029 148.219,35.804 Z" id="Path"></path>
            <path d="M71.603,112.418 C71.603,132.194 55.574,148.219 35.802,148.219 C16.03,148.219 0,132.194 0,112.418 C0,92.642 16.03,76.617 35.801,76.617 C55.573,76.617 71.603,92.642 71.603,112.418 Z" id="Path"></path>
            <path d="M148.219,112.418 C148.219,132.194 132.19,148.219 112.418,148.219 C92.647,148.219 76.617,132.194 76.617,112.418 C76.617,92.642 92.647,76.617 112.418,76.617 C132.19,76.617 148.219,92.642 148.219,112.418 Z" id="Path"></path>
        </g>
    </g>
</svg>
