<svg width="122" height="60" viewBox="0 0 122 60" fill="none" xmlns="http://www.w3.org/2000/svg">
<path d="M107.619 27.2692V14.3578L84.6534 25.8226H79.2943L102.26 14.3578H76.7133V27.2692H107.619Z" fill="white"/>
<path d="M107.619 47.5753V37.3382H76.6544V43.2904L78.1621 50.2496H107.619L84.6534 38.7847H90.0124L107.619 47.5753Z" fill="white"/>
<path d="M35.72 17.0321V27.2692H66.6281V14.3578H35.72L58.688 25.8226H53.329L35.72 17.0321Z" fill="white"/>
<path d="M78.1622 39.5565V50.2494H99.582L78.1622 39.5565Z" fill="#04043F"/>
<path d="M107.619 25.8227V18.3713L92.6909 25.8227H107.619Z" fill="#04043F"/>
<path d="M78.1622 14.3578V25.0508L99.582 14.3578H78.1622Z" fill="#04043F"/>
<path d="M92.6909 38.7846L107.619 46.2381V38.7846H92.6909Z" fill="#04043F"/>
<path d="M65.1796 14.3578H43.7598L65.1796 25.0508V14.3578Z" fill="#04043F"/>
<path d="M50.6485 25.8227L35.72 18.3713V25.8227H50.6485Z" fill="#04043F"/>
<path d="M8.2334 55.2698H9.75527C10.6359 55.2698 11.0965 55.8148 11.0965 56.455C11.0965 56.9169 10.9159 57.2046 10.6217 57.4031C11.0722 57.5753 11.3989 57.9218 11.3989 58.5377C11.3989 59.3643 10.7638 59.8201 9.82628 59.8201H8.2334V55.2698ZM9.74309 57.2309C10.224 57.2309 10.5142 56.923 10.5142 56.5198C10.5142 56.1349 10.226 55.8087 9.74309 55.8087H8.8178V57.2309H9.74309ZM9.8973 59.2832C10.5142 59.2832 10.8084 58.957 10.8084 58.5134C10.8084 58.0717 10.5121 57.7313 9.8973 57.7313H8.8178V59.2832H9.8973ZM12.5271 55.2698H13.8826C14.7754 55.2698 15.3456 55.7763 15.3456 56.5522C15.3456 57.0851 15.0574 57.6422 14.26 57.7962L15.8387 59.8221H15.1325L13.6107 57.8347H13.1095V59.8221H12.5251V55.2698H12.5271ZM13.844 57.314C14.4406 57.314 14.7429 57.0324 14.7429 56.5644C14.7429 56.0903 14.4406 55.8087 13.844 55.8087H13.1115V57.316H13.844V57.314ZM16.7214 55.2698H17.3058V59.8221H16.7214V55.2698ZM19.4932 55.8351H18.2027V55.2718H21.3742V55.8351H20.0776V59.8221H19.4932V55.8351ZM23.3466 55.2192L25.5685 59.8221H24.9395L24.3753 58.6288H22.3198L21.7557 59.8221H21.1267L23.3466 55.2192ZM24.1156 58.0899L23.3445 56.4611L22.5734 58.0899H24.1156ZM26.4025 55.2698H26.9869V59.8221H26.4025V55.2698ZM28.9917 56.5847V59.8221H28.4073V55.2192L31.656 58.5073V55.2698H32.2404V59.8728L28.9917 56.5847ZM42.1001 56.5847V59.8221H41.5157V55.2192L44.7644 58.5073V55.2698H45.3487V59.8728L42.1001 56.5847ZM46.3755 57.545C46.3755 56.224 47.4022 55.2171 48.707 55.2171C50.0097 55.2171 51.0385 56.224 51.0385 57.545C51.0385 58.8659 50.0117 59.8728 48.707 59.8728C47.4043 59.8728 46.3755 58.8659 46.3755 57.545ZM50.4399 57.545C50.4399 56.5441 49.7013 55.7763 48.707 55.7763C47.7127 55.7763 46.9741 56.5462 46.9741 57.545C46.9741 58.5437 47.7127 59.3136 48.707 59.3136C49.7013 59.3156 50.4399 58.5458 50.4399 57.545ZM52.0653 55.2698H53.4207C54.3136 55.2698 54.8838 55.7763 54.8838 56.5522C54.8838 57.0851 54.5956 57.6422 53.7981 57.7962L55.3768 59.8221H54.6707L53.1488 57.8347H52.6476V59.8221H52.0632V55.2698H52.0653ZM53.3822 57.314C53.9788 57.314 54.2811 57.0324 54.2811 56.5644C54.2811 56.0903 53.9788 55.8087 53.3822 55.8087H52.6497V57.316H53.3822V57.314ZM56.9738 55.8351H55.6832V55.2718H58.8548V55.8351H57.5582V59.8221H56.9738V55.8351ZM59.7497 55.2698H60.3341V57.2127H62.8502V55.2698H63.4346V59.8221H62.8502V57.7779H60.3341V59.8221H59.7497V55.2698ZM64.8571 55.2698H67.4889V55.833H65.4415V57.2107H67.1054V57.7739H65.4415V59.2549H67.4889V59.8181H64.8571V55.2698ZM68.6252 55.2698H69.9807C70.8735 55.2698 71.4437 55.7763 71.4437 56.5522C71.4437 57.0851 71.1556 57.6422 70.3581 57.7962L71.9368 59.8221H71.2307L69.7088 57.8347H69.2076V59.8221H68.6232V55.2698H68.6252ZM69.9421 57.314C70.5387 57.314 70.8411 57.0324 70.8411 56.5644C70.8411 56.0903 70.5387 55.8087 69.9421 55.8087H69.2096V57.316H69.9421V57.314ZM73.4059 56.5847V59.8221H72.8215V55.2192L76.0702 58.5073V55.2698H76.6546V59.8728L73.4059 56.5847ZM80.2036 55.2698H80.788V59.8221H80.2036V55.2698ZM82.2084 55.2698H83.5639C84.4567 55.2698 85.0269 55.7763 85.0269 56.5522C85.0269 57.0851 84.7388 57.6422 83.9413 57.7962L85.52 59.8221H84.8139L83.292 57.8347H82.7908V59.8221H82.2064V55.2698H82.2084ZM83.5253 57.314C84.1219 57.314 84.4242 57.0324 84.4242 56.5644C84.4242 56.0903 84.1219 55.8087 83.5253 55.8087H82.7928V57.316H83.5253V57.314ZM86.4027 55.2698H89.0345V55.833H86.9871V57.2107H88.651V57.7739H86.9871V59.2549H89.0345V59.8181H86.4027V55.2698ZM90.114 55.2698H90.6984V59.2508H92.6951V59.8221H90.114V55.2698ZM95.5177 55.2192L97.7396 59.8221H97.1105L96.5464 58.6288H94.4909L93.9268 59.8221H93.2978L95.5177 55.2192ZM96.2887 58.0899L95.5177 56.4611L94.7466 58.0899H96.2887ZM99.16 56.5847V59.8221H98.5756V55.2192L101.824 58.5073V55.2698H102.409V59.8728L99.16 56.5847ZM103.831 55.2698H105.187C106.593 55.2698 107.62 56.2443 107.62 57.545C107.62 58.8456 106.593 59.8201 105.187 59.8201H103.831V55.2698ZM105.187 59.2771C106.29 59.2771 107.023 58.5397 107.023 57.547C107.023 56.5543 106.29 55.8168 105.187 55.8168H104.416V59.2792H105.187V59.2771ZM35.1502 58.5762C35.1502 57.9157 35.6392 57.551 36.1201 57.2755L36.1587 57.2492C35.8888 56.9858 35.6007 56.6535 35.6007 56.224C35.6007 55.6142 36.114 55.1908 36.7634 55.1908C37.437 55.1908 37.8875 55.671 37.8875 56.2484C37.8875 56.8136 37.4573 57.1337 37.0069 57.3646L37.989 58.3209L38.4841 57.6928L38.8372 58.0393L38.3421 58.6673L39.5311 59.8221H38.8128L38.0296 59.0583C37.5486 59.6155 37.1428 59.8849 36.5523 59.8849C35.7163 59.8849 35.1502 59.3278 35.1502 58.5762ZM36.5706 59.3845C36.9825 59.3845 37.3031 59.1657 37.6745 58.718L36.532 57.6078L36.4367 57.6584C35.9862 57.8954 35.7102 58.1467 35.7102 58.5822C35.7102 59.0908 36.1262 59.3845 36.5706 59.3845ZM36.6477 57.0182L36.6802 57.0061C37.0454 56.8197 37.3478 56.6333 37.3478 56.2889C37.3478 55.9303 37.1104 55.673 36.7512 55.673C36.4245 55.673 36.1343 55.8837 36.1343 56.2382C36.1343 56.5381 36.3515 56.7427 36.6477 57.0182Z" fill="white"/>
<path d="M17.2363 39.2689C17.0963 39.1696 16.9543 39.0744 16.8406 39.0177C16.242 38.7118 15.5501 38.5618 14.706 38.5618C12.1939 38.5618 10.3108 40.5837 10.3108 43.0716C10.3108 45.5595 12.1939 47.5813 14.706 47.5813C15.962 47.5813 16.9543 47.318 17.6625 46.8135V44.4269H14.4544L14.4036 41.6575H20.5378V48.1486C19.2208 49.6255 17.1552 50.4136 14.7039 50.4136C10.6334 50.4136 7.35229 47.1377 7.35229 43.0736C7.35229 39.0096 10.6334 35.7336 14.7039 35.7336C16.7067 35.7336 18.4153 36.4184 19.7038 37.5894C19.789 37.6664 19.8966 37.7778 20.0041 37.8892L17.2363 39.2689ZM23.0235 35.8937H28.208C30.6592 35.8937 32.5423 37.7535 32.5423 40.1198C32.5423 41.9188 31.408 43.5173 29.6467 44.1028L34.3868 50.2495H30.8621L26.3452 44.3236H25.9597V50.2495H23.0235V35.8937ZM27.8833 41.8378C28.977 41.8378 29.6852 41.151 29.6852 40.2191C29.6852 39.2689 28.977 38.5821 27.8833 38.5821H25.9597V41.8378H27.8833ZM35.7199 35.8937H44.5103V38.7847H38.6561V41.6149H43.2948V44.4452H38.6561V47.3565H44.5103V50.2475H35.7199V35.8937ZM52.915 35.7316L59.9826 50.2495H56.8841L55.6889 47.7009H50.1392L48.944 50.2495H45.8454L52.915 35.7316ZM54.4653 45.2758L52.846 41.8378L51.2248 45.2758H54.4653ZM61.5329 38.7847H57.9474V35.8937H68.0749V38.7847H64.4691V50.2495H61.5329V38.7847Z" fill="white"/>
<path d="M75.2662 35.8937L76.713 38.7847H122V35.8937H75.2662Z" fill="url(#paint0_linear_4061_693)"/>
<path d="M78.1618 0H75.2662V14.3538V28.7137L78.1618 27.2692V0Z" fill="url(#paint1_linear_4061_693)"/>
<path d="M114.81 25.8226H76.713L75.2662 28.7136H114.81V25.8226Z" fill="url(#paint2_linear_4061_693)"/>
<path d="M68.073 7.17786H65.1794V27.2691L68.0751 28.7136L68.073 7.17786Z" fill="url(#paint3_linear_4061_693)"/>
<path d="M0.165405 25.8226H66.6285L68.0753 28.7136H0.165405V25.8226Z" fill="url(#paint4_linear_4061_693)"/>
<path d="M78.1618 50.2495H75.2662V35.8937L78.1618 37.3382V50.2495Z" fill="white"/>
<defs>
<linearGradient id="paint0_linear_4061_693" x1="122" y1="37.3389" x2="75.2653" y2="37.3389" gradientUnits="userSpaceOnUse">
<stop stop-color="white" stop-opacity="0"/>
<stop offset="0.303" stop-color="white"/>
</linearGradient>
<linearGradient id="paint1_linear_4061_693" x1="76.7134" y1="0.000287141" x2="76.7134" y2="28.7145" gradientUnits="userSpaceOnUse">
<stop stop-color="white" stop-opacity="0"/>
<stop offset="0.4921" stop-color="white"/>
</linearGradient>
<linearGradient id="paint2_linear_4061_693" x1="114.81" y1="27.2685" x2="75.2653" y2="27.2685" gradientUnits="userSpaceOnUse">
<stop stop-color="white" stop-opacity="0"/>
<stop offset="0.1762" stop-color="white"/>
</linearGradient>
<linearGradient id="paint3_linear_4061_693" x1="66.6274" y1="7.17877" x2="66.6274" y2="28.7144" gradientUnits="userSpaceOnUse">
<stop stop-color="white" stop-opacity="0"/>
<stop offset="0.3227" stop-color="white"/>
</linearGradient>
<linearGradient id="paint4_linear_4061_693" x1="0.164512" y1="27.2685" x2="68.0759" y2="27.2685" gradientUnits="userSpaceOnUse">
<stop stop-color="white" stop-opacity="0"/>
<stop offset="0.5188" stop-color="white"/>
</linearGradient>
</defs>
</svg>
